#!OML:ASF H:\charlestonDancing\Project 1\Capture day 1\Session 1\femaleDancer.ASF
:FULLY-SPECIFIED
:DEGREES
348
root 1.94232 17.8408 -1.75345 -151.164 -92.173 155.752
lowerback 15.1704 -1.18479 1.05132
upperback 1.65414 -1.43809 0.532286
thorax -6.75961 -0.757503 0.271479
lowerneck 9.60043 -13.9086 -9.83542
upperneck -5.68295 -19.8283 0.642702
head -2.41987 -9.70897 2.61939
rclavicle -2.38945e-014 2.00773e-014
rhumerus -46.1253 -14.4233 -67.2479
rradius 15.9308
rwrist 45.5921
rhand -20.0304 -29.8607
rfingers 7.12502
rthumb 6.31044 -59.7467
lclavicle -2.38945e-014 2.00773e-014
lhumerus -42.4514 17.175 15.5798
lradius 144.934
lwrist -3.45651
lhand 0.374211 8.05059
lfingers 7.12502
lthumb 25.9488 36.2994
rfemur -31.8752 -4.63465 22.909
rtibia 65.2061
rfoot -14.1313 -0.62764
rtoes -14.3536
lfemur -15.8701 -4.67391 -24.6626
ltibia 34.48
lfoot -14.7487 -6.30337
ltoes -11.5923
349
root 1.95421 17.8706 -1.76307 -137.413 -91.7641 142.387
lowerback 14.3547 -1.14176 1.07592
upperback 1.24149 -1.36668 0.565551
thorax -6.74759 -0.716945 0.265617
lowerneck 9.16336 -13.7656 -9.3868
upperneck -4.97005 -19.5413 0.135627
head -2.21194 -9.5843 2.31632
rclavicle 6.33548e-015 1.33155e-014
rhumerus -47.2256 -16.1605 -64.6605
rradius 15.3656
rwrist 48.4379
rhand -18.376 -28.2069
rfingers 7.12502
rthumb 7.90743 -58.0391
lclavicle 6.33548e-015 1.33155e-014
lhumerus -42.4962 16.4251 16.2335
lradius 144.598
lwrist -3.92651
lhand -0.821311 8.46964
lfingers 7.12502
lthumb 24.8035 36.8811
rfemur -29.9273 -4.36687 23.1505
rtibia 65.7405
rfoot -13.2115 -0.389336
rtoes -15.9391
lfemur -16.2345 -4.44137 -24.3873
ltibia 34.3691
lfoot -14.7212 -6.09494
ltoes -11.5016
350
root 1.97383 17.8804 -1.77899 -126.816 -91.4213 132.317
lowerback 13.5462 -1.08576 0.883137
upperback 0.766265 -1.31625 0.51892
thorax -6.8003 -0.681211 0.304177
lowerneck 8.36685 -13.5085 -9.06695
upperneck -3.89241 -19.0337 -0.0200941
head -1.78155 -9.37706 2.07866
rclavicle 1.58282e-014 -2.90723e-015
rhumerus -48.1087 -17.142 -62.858
rradius 15.0891
rwrist 47.9625
rhand -16.1974 -28.1451
rfingers 7.12502
rthumb 10.0097 -57.8871
lclavicle 1.58282e-014 -2.90723e-015
lhumerus -42.2975 15.7557 16.664
lradius 144.278
lwrist -4.56124
lhand -1.42007 8.61212
lfingers 7.12502
lthumb 24.2295 37.1013
rfemur -27.9427 -4.12843 23.177
rtibia 65.7809
rfoot -11.791 -0.175782
rtoes -15.994
lfemur -17.0503 -4.26813 -24.3174
ltibia 34.6768
lfoot -14.7058 -5.77433
ltoes -12.2457
351
root 1.99858 17.8668 -1.79401 -127.019 -91.1811 133.032
lowerback 12.9313 -1.10634 0.62108
upperback 0.266168 -1.37709 0.45053
thorax -6.9845 -0.698069 0.384885
lowerneck 8.23017 -13.6338 -8.68976
upperneck -3.60934 -19.1321 -0.0589982
head -1.69771 -9.43883 1.9867
rclavicle -9.74666e-015 2.98177e-016
rhumerus -48.8781 -17.5309 -61.5292
rradius 15.0357
rwrist 46.3481
rhand -14.5375 -29.0591
rfingers 7.12502
rthumb 11.6108 -58.7174
lclavicle -9.74666e-015 2.98177e-016
lhumerus -41.9529 15.3561 16.7787
lradius 143.999
lwrist -5.0377
lhand -0.084437 8.17627
lfingers 7.12502
lthumb 25.5095 36.4886
rfemur -25.685 -4.22401 22.9877
rtibia 65.1979
rfoot -11.188 -0.0920717
rtoes -18.6093
lfemur -18.101 -4.26307 -24.4299
ltibia 35.4096
lfoot -14.9082 -5.76643
ltoes -13.2889
352
root 2.03128 17.8246 -1.80975 -132.334 -91.1525 138.753
lowerback 12.4541 -1.17249 0.479527
upperback -0.108553 -1.47861 0.460191
thorax -7.11146 -0.738903 0.488333
lowerneck 7.89569 -13.6357 -8.68036
upperneck -3.2677 -19.0588 0.293471
head -1.49568 -9.42653 2.03553
rclavicle 2.67738e-015 -1.19271e-014
rhumerus -49.3525 -17.6676 -60.5456
rradius 15.179
rwrist 44.4288
rhand -13.3626 -30.5147
rfingers 7.12502
rthumb 12.7436 -60.1058
lclavicle 2.67738e-015 -1.19271e-014
lhumerus -41.3368 15.2235 16.882
lradius 143.662
lwrist -5.11628
lhand 0.844778 8.10376
lfingers 7.12502
lthumb 26.3993 36.2857
rfemur -23.1027 -4.49648 22.8596
rtibia 63.8661
rfoot -10.6431 0.31266
rtoes -19.9347
lfemur -19.2449 -4.44791 -24.4446
ltibia 36.5804
lfoot -15.3035 -6.08998
ltoes -13.3283
353
root 2.07457 17.764 -1.82936 -130.042 -91.3762 136.795
lowerback 11.9121 -1.18441 0.60417
upperback -0.233657 -1.46951 0.57901
thorax -6.93866 -0.736163 0.530746
lowerneck 7.40219 -13.6712 -8.73832
upperneck -3.07334 -19.0209 0.849554
head -1.28779 -9.43138 2.14838
rclavicle 1.55052e-014 7.42958e-015
rhumerus -49.4158 -18.2366 -59.5286
rradius 15.254
rwrist 43.2788
rhand -12.6647 -31.4697
rfingers 7.12502
rthumb 13.4164 -61.0177
lclavicle 1.55052e-014 7.42958e-015
lhumerus -40.3433 15.3632 17.133
lradius 143.254
lwrist -5.02594
lhand 0.738226 8.53354
lfingers 7.12502
lthumb 26.2973 36.7308
rfemur -20.2699 -4.60945 23.0793
rtibia 61.5935
rfoot -9.77091 0.850945
rtoes -20.447
lfemur -20.5744 -4.70558 -24.1216
ltibia 38.1828
lfoot -15.7798 -6.49365
ltoes -12.2405
354
root 2.12606 17.6896 -1.84831 -131.273 -91.7733 138.209
lowerback 11.9198 -1.21138 0.995695
upperback -0.470566 -1.44096 0.642614
thorax -7.20411 -0.733862 0.376241
lowerneck 7.158 -13.7763 -9.08509
upperneck -2.91832 -19.1142 1.67501
head -1.07483 -9.50188 2.40614
rclavicle 1.51791e-014 5.50385e-015
rhumerus -49.5897 -19.0285 -58.3925
rradius 15.0484
rwrist 42.8878
rhand -12.4065 -32.6282
rfingers 7.12502
rthumb 13.6653 -62.1596
lclavicle 1.51791e-014 5.50385e-015
lhumerus -39.1415 15.661 16.9245
lradius 142.777
lwrist -4.90406
lhand 1.43874 8.6729
lfingers 7.12502
lthumb 26.9677 36.7683
rfemur -17.0556 -4.801 23.3792
rtibia 58.2471
rfoot -9.15373 1.12664
rtoes -20.3685
lfemur -22.0377 -5.01817 -23.7398
ltibia 40.2647
lfoot -16.3233 -7.06259
ltoes -10.9359
355
root 2.1873 17.5976 -1.86594 -133.642 -92.2798 140.61
lowerback 11.9835 -1.24508 1.44561
upperback -0.486167 -1.41269 0.767797
thorax -7.26501 -0.734956 0.251735
lowerneck 7.39028 -13.914 -10.3542
upperneck -3.33727 -19.3429 3.58193
head -0.918716 -9.64414 3.20116
rclavicle -1.10978e-014 8.7838e-015
rhumerus -49.1592 -19.7547 -57.702
rradius 14.9253
rwrist 43.7222
rhand -12.4947 -32.5666
rfingers 7.12502
rthumb 13.5803 -62.1037
lclavicle -1.10978e-014 8.7838e-015
lhumerus -37.6772 16.5503 16.5753
lradius 142.142
lwrist -4.64666
lhand 2.70111 8.57988
lfingers 7.12502
lthumb 28.1749 36.4825
rfemur -13.5242 -5.06217 23.6893
rtibia 53.8923
rfoot -8.80241 1.09769
rtoes -22.1913
lfemur -23.6097 -5.32142 -23.3401
ltibia 42.8406
lfoot -16.6035 -7.74807
ltoes -9.59831
356
root 2.26068 17.4917 -1.88392 -130.802 -93.0753 137.837
lowerback 12.1308 -1.31342 2.38111
upperback -0.404909 -1.35693 0.970479
thorax -7.27959 -0.74035 -0.0687912
lowerneck 6.47398 -14.1276 -9.05532
upperneck -3.50475 -19.4933 2.41525
head -1.05406 -9.69651 2.58758
rclavicle 1.42131e-014 -3.8763e-015
rhumerus -48.2748 -20.4551 -57.4768
rradius 14.7337
rwrist 44.6878
rhand -12.4246 -32.9226
rfingers 7.12502
rthumb 13.6478 -62.4552
lclavicle 1.42131e-014 -3.8763e-015
lhumerus -36.0256 17.5729 16.2264
lradius 141.348
lwrist -4.00582
lhand 3.34368 8.80535
lfingers 7.12502
lthumb 28.7889 36.6052
rfemur -10.0485 -5.34701 24.4212
rtibia 48.85
rfoot -14.3451 2.1239
rtoes -30.776
lfemur -25.5312 -5.53606 -22.5301
ltibia 45.8488
lfoot -16.5107 -8.51071
ltoes -8.90912
357
root 2.3445 17.3785 -1.90206 -126.793 -94.0517 133.954
lowerback 12.4196 -1.36305 3.68874
upperback -0.354405 -1.21145 1.21425
thorax -7.41113 -0.717353 -0.567659
lowerneck 5.81072 -14.3451 -8.40954
upperneck -3.81864 -19.7165 1.8801
head -1.14925 -9.79555 2.2958
rclavicle -4.68386e-015 -9.93923e-016
rhumerus -47.144 -20.7025 -57.9107
rradius 14.6254
rwrist 45.5247
rhand -11.7818 -34.2067
rfingers 7.12502
rthumb 14.2673 -63.6966
lclavicle -4.68386e-015 -9.93923e-016
lhumerus -34.2751 18.5926 15.8768
lradius 140.416
lwrist -3.32562
lhand 3.70565 9.13484
lfingers 7.12502
lthumb 29.1346 36.8754
rfemur -7.00534 -5.99898 25.4478
rtibia 43.7447
rfoot -19.0696 1.3836
rtoes -30.6591
lfemur -27.8336 -5.72433 -21.4417
ltibia 49.2503
lfoot -16.1776 -9.08121
ltoes -9.91436
358
root 2.43398 17.2767 -1.91965 -122.456 -94.9387 129.774
lowerback 12.8091 -1.29011 4.98652
upperback -0.34716 -0.886383 1.50249
thorax -7.63066 -0.610253 -1.04536
lowerneck 5.80634 -14.5413 -8.30953
upperneck -4.63281 -19.9959 1.95912
head -1.40083 -9.91953 2.35367
rclavicle 6.21202e-015 -2.51463e-014
rhumerus -45.6895 -20.5012 -58.8389
rradius 14.4794
rwrist 46.0827
rhand -12.9294 -33.639
rfingers 7.12502
rthumb 13.1612 -63.2036
lclavicle 6.21202e-015 -2.51463e-014
lhumerus -32.496 19.5702 15.8244
lradius 139.416
lwrist -2.88097
lhand 4.12654 9.40797
lfingers 7.12502
lthumb 29.5365 37.0782
rfemur -4.68896 -7.1518 26.4673
rtibia 39.1167
rfoot -22.4468 0.864603
rtoes -28.9859
lfemur -30.3591 -5.79572 -20.3101
ltibia 52.9412
lfoot -15.3543 -9.6275
ltoes -8.86588
359
root 2.52744 17.18 -1.93706 -116.086 -95.8269 123.711
lowerback 13.1084 -1.10735 6.32621
upperback -0.32645 -0.402552 1.87105
thorax -7.76225 -0.428696 -1.49492
lowerneck 6.04316 -14.6562 -8.65654
upperneck -5.6734 -20.1944 2.59409
head -1.67117 -10.0078 2.67478
rclavicle 1.78906e-015 -7.95139e-016
rhumerus -43.6131 -19.9056 -60.2959
rradius 14.2382
rwrist 46.2894
rhand -13.4784 -34.0266
rfingers 7.12502
rthumb 12.632 -63.6247
lclavicle 1.78906e-015 -7.95139e-016
lhumerus -30.858 20.6209 16.079
lradius 138.465
lwrist -2.47864
lhand 4.38369 9.63271
lfingers 7.12502
lthumb 29.7819 37.2592
rfemur -3.38158 -7.72442 27.8546
rtibia 35.5814
rfoot -24.8412 -0.00177159
rtoes -26.279
lfemur -33.1411 -5.51287 -18.9613
ltibia 56.5519
lfoot -13.7958 -10.1384
ltoes -5.3209
360
root 2.62079 17.0862 -1.95521 -106.374 -97.2418 114.305
lowerback 13.4848 -0.866347 8.18487
upperback -0.294756 0.259573 2.40895
thorax -7.89535 -0.184975 -2.08813
lowerneck 6.37129 -14.7218 -8.97914
upperneck -6.74153 -20.3345 3.21031
head -1.9767 -10.0674 3.00457
rclavicle 6.36111e-015 -7.95139e-016
rhumerus -41.0781 -18.6196 -62.3465
rradius 14.1414
rwrist 46.0519
rhand -13.9017 -34.2042
rfingers 7.12502
rthumb 12.2239 -63.827
lclavicle 6.36111e-015 -7.95139e-016
lhumerus -29.6582 21.6415 16.2429
lradius 137.684
lwrist -2.00922
lhand 4.45665 9.62309
lfingers 7.12502
lthumb 29.8516 37.2371
rfemur -2.77766 -7.33431 30.1567
rtibia 33.2281
rfoot -25.97 -1.19441
rtoes -22.2914
lfemur -36.0013 -4.65436 -16.8338
ltibia 59.991
lfoot -11.9354 -10.1061
ltoes -6.45749
361
root 2.69381 17.0513 -1.96114 -100.531 -96.7318 109.16
lowerback 13.5278 -0.497742 7.99036
upperback -0.416453 0.727614 2.31405
thorax -8.0065 0.0420334 -2.17441
lowerneck 6.76677 -14.6565 -8.99052
upperneck -7.64466 -20.2905 3.5615
head -2.31442 -10.0353 3.21756
rclavicle 2.98177e-015 -2.0276e-014
rhumerus -38.3222 -16.38 -65.0118
rradius 14.4058
rwrist 45.2637
rhand -13.8124 -34.1558
rfingers 7.12502
rthumb 12.31 -63.7734
lclavicle 2.98177e-015 -2.0276e-014
lhumerus -29.1078 22.4693 16.0153
lradius 137.156
lwrist -1.47479
lhand 4.50575 9.41182
lfingers 7.12502
lthumb 29.8984 37.0174
rfemur -3.06892 -6.80086 30.0964
rtibia 31.9409
rfoot -26.6416 -1.93258
rtoes -18.9188
lfemur -38.6253 -3.79612 -17.0138
ltibia 62.6692
lfoot -10.0265 -9.50997
ltoes -10.2934
